<?xml version="1.0" encoding="utf-8"?>
<!-- Generator: Adobe Illustrator 19.0.0, SVG Export Plug-In . SVG Version: 6.00 Build 0)  -->
<svg version="1.1" id="Camada_1" xmlns="http://www.w3.org/2000/svg" xmlns:xlink="http://www.w3.org/1999/xlink" x="0px" y="0px"
	 viewBox="0 0 100 100" style="enable-background:new 0 0 100 100;" xml:space="preserve">
<style type="text/css">
	.st0{fill:#FFFFFF;}
	.st1{fill:#FFFFFF;stroke:#EEEEEE;stroke-miterlimit:10;}
	.st2{fill:#DEE4E5;}
</style>
<g id="XMLID_26_">
	<circle id="XMLID_98_" class="st0" cx="50" cy="50.1" r="46.9"/>
	<ellipse id="XMLID_37_" class="st1" cx="49.9" cy="50" rx="47.8" ry="47.7"/>
	<path id="XMLID_32_" class="st2" d="M49.7,98C23.4,97.7,1.7,76.8,2,49.7C2.3,22.5,23.2,2.2,49.4,2C77.5,1.8,98,23.1,98,50
		C98,77.4,76.2,98,49.7,98z M50.6,95.7c9.5,0.3,18.7-2.6,26.7-8.9c5.9-4.6,6.7-3.7,0.5-10.6c-7.6-8.5-17.7-11.5-28.9-11.3
		c-12.2,0.3-22.1,4.7-29.4,14.6c-1.4,1.8-1.5,3.2,0.3,4.8C28.3,92.2,38.4,95.8,50.6,95.7z M33.2,41.8c0,9.7,7.2,17.1,16.6,17.1
		c9.6,0,17-7.3,17.2-16.7c0.1-9.5-7.5-17.4-16.9-17.1C40,25.5,33.2,31.8,33.2,41.8z"/>
</g>
</svg>
